<svg width="16" height="16" viewBox="0 0 16 16" fill="none" xmlns="http://www.w3.org/2000/svg">
<path d="M5 8H11V9H5V8ZM5 5H11V6H5V5Z" fill="white"/>
<path d="M8 15L4.912 13.3535C4.0316 12.8852 3.29536 12.186 2.78232 11.3309C2.26929 10.4759 1.99883 9.49718 2 8.5V2C2 1.73478 2.10536 1.48043 2.2929 1.29289C2.48043 1.10536 2.73479 1 3 1H13C13.2652 1 13.5196 1.10536 13.7071 1.29289C13.8946 1.48043 14 1.73478 14 2V8.5C14.0012 9.49718 13.7307 10.4759 13.2177 11.3309C12.7047 12.186 11.9684 12.8852 11.088 13.3535L8 15ZM3 2V8.5C2.99945 9.31585 3.22094 10.1165 3.64074 10.816C4.06054 11.5156 4.66282 12.0877 5.383 12.471L8 13.8665L10.617 12.4715C11.3373 12.0881 11.9396 11.5159 12.3594 10.8163C12.7792 10.1167 13.0007 9.31593 13 8.5V2H3Z" fill="white"/>
</svg>
