<svg width="28" height="28" viewBox="0 0 28 28" fill="none" xmlns="http://www.w3.org/2000/svg" color="#C40721">
  <path d="M15.6316 0C14.3235 0 13.2632 1.06038 13.2632 2.36842C13.2632 3.67646 14.3235 4.73684 15.6316 4.73684C16.9396 4.73684 18 3.67646 18 2.36842C18 1.06038 16.9396 0 15.6316 0Z" fill="currentColor"/>
  <path d="M9 0C7.69196 0 6.63158 1.06038 6.63158 2.36842C6.63158 3.67646 7.69196 4.73684 9 4.73684C10.308 4.73684 11.3684 3.67646 11.3684 2.36842C11.3684 1.06038 10.308 0 9 0Z" fill="currentColor"/>
  <path d="M9 6.63158C7.69196 6.63158 6.63158 7.69196 6.63158 9C6.63158 10.308 7.69196 11.3684 9 11.3684C10.308 11.3684 11.3684 10.308 11.3684 9C11.3684 7.69196 10.308 6.63158 9 6.63158Z" fill="currentColor"/>
  <path d="M2.36842 13.2632C1.06038 13.2632 -4.17233e-07 14.3235 -4.17233e-07 15.6316C-4.17233e-07 16.9396 1.06038 18 2.36842 18C3.67646 18 4.73684 16.9396 4.73684 15.6316C4.73684 14.3235 3.67646 13.2632 2.36842 13.2632Z" fill="currentColor"/>
  <path d="M2.36842 0C1.06038 0 -4.17233e-07 1.06038 -4.17233e-07 2.36842C-4.17233e-07 3.67646 1.06038 4.73684 2.36842 4.73684C3.67646 4.73684 4.73684 3.67646 4.73684 2.36842C4.73684 1.06038 3.67646 0 2.36842 0Z" fill="currentColor"/>
  <path d="M2.36842 6.63158C1.06038 6.63158 -4.17233e-07 7.69196 -4.17233e-07 9C-4.17233e-07 10.308 1.06038 11.3684 2.36842 11.3684C3.67646 11.3684 4.73684 10.308 4.73684 9C4.73684 7.69196 3.67646 6.63158 2.36842 6.63158Z" fill="currentColor"/>
</svg>