<svg width="930" height="878" viewBox="0 0 930 878" fill="none" xmlns="http://www.w3.org/2000/svg">
<g opacity="0.2">
<rect x="-0.782561" y="0.368365" width="244.638" height="244.638" rx="18.9594" transform="matrix(-0.940923 -0.33862 -0.33862 0.940923 927.85 270.226)" stroke="white" stroke-width="1.22319"/>
<rect x="-0.782561" y="0.368365" width="244.638" height="244.638" rx="18.9594" transform="matrix(-0.940923 -0.33862 -0.33862 0.940923 833.413 532.638)" stroke="white" stroke-width="1.22319"/>
<rect x="-0.782561" y="0.368365" width="244.638" height="244.638" rx="18.9594" transform="matrix(-0.940923 -0.33862 -0.33862 0.940923 687.622 121.374)" stroke="white" stroke-width="1.22319"/>
<rect x="-0.782561" y="0.368365" width="244.638" height="244.638" rx="18.9594" transform="matrix(-0.940923 -0.33862 -0.33862 0.940923 593.184 383.785)" stroke="white" stroke-width="1.22319"/>
<rect x="-0.782561" y="0.368365" width="244.638" height="244.638" rx="18.9594" transform="matrix(-0.940923 -0.33862 -0.33862 0.940923 498.747 646.196)" stroke="white" stroke-width="1.22319"/>
<rect x="-0.782561" y="0.368365" width="244.638" height="244.638" rx="18.9594" transform="matrix(-0.940923 -0.33862 -0.33862 0.940923 407.629 83.0102)" stroke="white" stroke-width="1.22319"/>
<rect x="-0.782561" y="0.368365" width="244.638" height="244.638" rx="18.9594" transform="matrix(-0.940923 -0.33862 -0.33862 0.940923 313.196 345.421)" stroke="white" stroke-width="1.22319"/>
</g>
</svg>
